<mxfile host="Electron" agent="Mozilla/5.0 (Windows NT 10.0; Win64; x64) AppleWebKit/537.36 (KHTML, like Gecko) draw.io/26.2.15 Chrome/134.0.6998.205 Electron/35.2.1 Safari/537.36" version="26.2.15">
  <diagram name="Page-1" id="l_Yt8LBe_VwCafzlYzs6">
    <mxGraphModel dx="1426" dy="841" grid="1" gridSize="10" guides="1" tooltips="1" connect="1" arrows="1" fold="1" page="1" pageScale="1" pageWidth="1169" pageHeight="827" math="0" shadow="0">
      <root>
        <mxCell id="0" />
        <mxCell id="1" parent="0" />
        <mxCell id="yng3GQq8KLOiao4veWYx-1" value="&lt;font style=&quot;font-size: 16px;&quot;&gt;&lt;b&gt;Syslogd&lt;/b&gt;&lt;/font&gt;&lt;div&gt;&lt;font style=&quot;font-size: 16px;&quot;&gt;&lt;b&gt;via/dev/log&lt;/b&gt;&lt;/font&gt;&lt;/div&gt;" style="ellipse;whiteSpace=wrap;html=1;strokeWidth=3;fillColor=#ffe6cc;strokeColor=#000000;" parent="1" vertex="1">
          <mxGeometry x="480" y="360" width="170" height="80" as="geometry" />
        </mxCell>
        <mxCell id="yng3GQq8KLOiao4veWYx-5" value="&lt;span style=&quot;font-size: 16px;&quot;&gt;&lt;b&gt;xineld&lt;/b&gt;&lt;/span&gt;" style="ellipse;whiteSpace=wrap;html=1;strokeWidth=3;fillColor=#fff2cc;strokeColor=#000000;" parent="1" vertex="1">
          <mxGeometry x="180" y="490" width="170" height="60" as="geometry" />
        </mxCell>
        <mxCell id="yng3GQq8KLOiao4veWYx-9" value="&lt;b style=&quot;font-size: 16px; color: rgb(0, 0, 0); background-color: rgb(236, 236, 236);&quot;&gt;SSHD&lt;/b&gt;" style="ellipse;whiteSpace=wrap;html=1;strokeWidth=3;fillColor=#fff2cc;strokeColor=#000000;" parent="1" vertex="1">
          <mxGeometry x="180" y="413" width="170" height="60" as="geometry" />
        </mxCell>
        <mxCell id="yng3GQq8KLOiao4veWYx-10" value="&lt;b style=&quot;font-size: 16px;&quot;&gt;Mail&lt;/b&gt;" style="ellipse;whiteSpace=wrap;html=1;strokeWidth=3;fillColor=#fff2cc;strokeColor=#000000;" parent="1" vertex="1">
          <mxGeometry x="180" y="330" width="170" height="60" as="geometry" />
        </mxCell>
        <mxCell id="yng3GQq8KLOiao4veWYx-11" value="&lt;b style=&quot;font-size: 16px; color: rgb(0, 0, 0); background-color: rgb(236, 236, 236);&quot;&gt;crond&lt;/b&gt;" style="ellipse;whiteSpace=wrap;html=1;strokeWidth=3;fillColor=#fff2cc;strokeColor=#000000;" parent="1" vertex="1">
          <mxGeometry x="180" y="250" width="170" height="60" as="geometry" />
        </mxCell>
        <mxCell id="yng3GQq8KLOiao4veWYx-12" value="" style="endArrow=classic;html=1;rounded=0;exitX=1;exitY=0.5;exitDx=0;exitDy=0;strokeWidth=3;" parent="1" source="yng3GQq8KLOiao4veWYx-11" edge="1">
          <mxGeometry width="50" height="50" relative="1" as="geometry">
            <mxPoint x="350" y="440" as="sourcePoint" />
            <mxPoint x="500" y="370" as="targetPoint" />
          </mxGeometry>
        </mxCell>
        <mxCell id="yng3GQq8KLOiao4veWYx-13" value="" style="endArrow=classic;html=1;rounded=0;exitX=1;exitY=0.5;exitDx=0;exitDy=0;entryX=0;entryY=0.375;entryDx=0;entryDy=0;strokeWidth=3;entryPerimeter=0;" parent="1" source="yng3GQq8KLOiao4veWYx-10" target="yng3GQq8KLOiao4veWYx-1" edge="1">
          <mxGeometry width="50" height="50" relative="1" as="geometry">
            <mxPoint x="350" y="440" as="sourcePoint" />
            <mxPoint x="400" y="390" as="targetPoint" />
          </mxGeometry>
        </mxCell>
        <mxCell id="yng3GQq8KLOiao4veWYx-14" value="" style="endArrow=classic;html=1;rounded=0;exitX=1;exitY=0.5;exitDx=0;exitDy=0;strokeWidth=3;entryX=0;entryY=0.625;entryDx=0;entryDy=0;entryPerimeter=0;" parent="1" source="yng3GQq8KLOiao4veWYx-9" target="yng3GQq8KLOiao4veWYx-1" edge="1">
          <mxGeometry width="50" height="50" relative="1" as="geometry">
            <mxPoint x="360" y="370" as="sourcePoint" />
            <mxPoint x="480" y="400" as="targetPoint" />
          </mxGeometry>
        </mxCell>
        <mxCell id="yng3GQq8KLOiao4veWYx-15" value="" style="endArrow=classic;html=1;rounded=0;exitX=1;exitY=0.5;exitDx=0;exitDy=0;strokeWidth=3;entryX=0.118;entryY=0.875;entryDx=0;entryDy=0;entryPerimeter=0;" parent="1" source="yng3GQq8KLOiao4veWYx-5" target="yng3GQq8KLOiao4veWYx-1" edge="1">
          <mxGeometry width="50" height="50" relative="1" as="geometry">
            <mxPoint x="360" y="290" as="sourcePoint" />
            <mxPoint x="510" y="380" as="targetPoint" />
          </mxGeometry>
        </mxCell>
        <mxCell id="yng3GQq8KLOiao4veWYx-16" value="&lt;font style=&quot;font-size: 16px;&quot;&gt;&lt;b&gt;zpracování logovaných&lt;/b&gt;&lt;/font&gt;&lt;div&gt;&lt;font style=&quot;font-size: 16px;&quot;&gt;&lt;b&gt;dat&lt;/b&gt;&lt;/font&gt;&lt;/div&gt;" style="text;html=1;align=center;verticalAlign=middle;whiteSpace=wrap;rounded=0;" parent="1" vertex="1">
          <mxGeometry x="432.5" y="200" width="265" height="40" as="geometry" />
        </mxCell>
        <mxCell id="yng3GQq8KLOiao4veWYx-17" value="" style="rounded=0;whiteSpace=wrap;html=1;strokeWidth=3;fillColor=#9AC7BF;strokeColor=#000000;" parent="1" vertex="1">
          <mxGeometry x="790" y="295" width="190" height="210" as="geometry" />
        </mxCell>
        <mxCell id="yng3GQq8KLOiao4veWYx-18" value="" style="endArrow=none;html=1;rounded=0;exitX=0.25;exitY=1;exitDx=0;exitDy=0;entryX=0.25;entryY=0;entryDx=0;entryDy=0;strokeWidth=2;" parent="1" edge="1">
          <mxGeometry width="50" height="50" relative="1" as="geometry">
            <mxPoint x="820" y="505" as="sourcePoint" />
            <mxPoint x="820" y="295" as="targetPoint" />
          </mxGeometry>
        </mxCell>
        <mxCell id="yng3GQq8KLOiao4veWYx-19" value="" style="endArrow=none;html=1;rounded=0;entryX=0.995;entryY=0.119;entryDx=0;entryDy=0;entryPerimeter=0;exitX=0;exitY=0.119;exitDx=0;exitDy=0;exitPerimeter=0;strokeWidth=2;" parent="1" source="yng3GQq8KLOiao4veWYx-17" target="yng3GQq8KLOiao4veWYx-17" edge="1">
          <mxGeometry width="50" height="50" relative="1" as="geometry">
            <mxPoint x="759.98" y="320" as="sourcePoint" />
            <mxPoint x="970" y="320.02" as="targetPoint" />
          </mxGeometry>
        </mxCell>
        <mxCell id="yng3GQq8KLOiao4veWYx-20" value="&lt;font style=&quot;font-size: 16px;&quot;&gt;&lt;b&gt;Plain-Text soubory&lt;/b&gt;&lt;/font&gt;&lt;div&gt;&lt;font style=&quot;font-size: 16px;&quot;&gt;&lt;b&gt;/var/log/&lt;/b&gt;&lt;/font&gt;&lt;/div&gt;" style="text;html=1;align=center;verticalAlign=middle;whiteSpace=wrap;rounded=0;" parent="1" vertex="1">
          <mxGeometry x="820" y="360" width="160" height="80" as="geometry" />
        </mxCell>
        <mxCell id="yng3GQq8KLOiao4veWYx-21" value="" style="endArrow=classic;html=1;rounded=0;exitX=1;exitY=0.5;exitDx=0;exitDy=0;strokeWidth=3;entryX=0;entryY=0.5;entryDx=0;entryDy=0;" parent="1" source="yng3GQq8KLOiao4veWYx-1" target="yng3GQq8KLOiao4veWYx-17" edge="1">
          <mxGeometry width="50" height="50" relative="1" as="geometry">
            <mxPoint x="620" y="370" as="sourcePoint" />
            <mxPoint x="780" y="400" as="targetPoint" />
          </mxGeometry>
        </mxCell>
        <mxCell id="yng3GQq8KLOiao4veWYx-22" value="&lt;span style=&quot;font-size: 16px;&quot;&gt;&lt;b&gt;zdroje logovacích dat&lt;/b&gt;&lt;/span&gt;" style="text;html=1;align=center;verticalAlign=middle;whiteSpace=wrap;rounded=0;" parent="1" vertex="1">
          <mxGeometry x="132.5" y="200" width="265" height="40" as="geometry" />
        </mxCell>
        <mxCell id="yng3GQq8KLOiao4veWYx-23" value="&lt;span style=&quot;font-size: 16px;&quot;&gt;&lt;b&gt;uložiště výstupu&lt;/b&gt;&lt;/span&gt;&lt;div&gt;&lt;span style=&quot;font-size: 16px;&quot;&gt;&lt;b&gt;syslogd&lt;/b&gt;&lt;/span&gt;&lt;/div&gt;" style="text;html=1;align=center;verticalAlign=middle;whiteSpace=wrap;rounded=0;" parent="1" vertex="1">
          <mxGeometry x="752.5" y="200" width="265" height="40" as="geometry" />
        </mxCell>
      </root>
    </mxGraphModel>
  </diagram>
</mxfile>
